<svg width="366" height="119" viewBox="0 0 366 119" fill="none" xmlns="http://www.w3.org/2000/svg">
<g clip-path="url(#clip0)">
<path d="M68.9398 101.891C64.7517 98.0085 65.4197 98.3895 70.6727 93.2369C73.9943 90.2433 70.402 88.175 69.2466 89.5539C62.4411 99.0608 49.1731 99.8228 44.8045 98.9338C42.1329 98.3895 33.5222 94.9061 34.7316 92.3842C38.36 89.826 41.122 84.492 40.3818 81.7343C40.0027 80.4642 40.1111 80.2102 41.483 79.6297C47.1332 77.4525 53.2528 71.5379 55.4009 64.3351C55.8883 63.3191 56.5201 63.174 57.4408 63.3191C60.8165 63.8271 65.203 63.6457 69.6618 60.9605C71.6656 59.6724 71.6656 59.6724 73.5791 61.4685C75.7453 63.2647 77.2977 65.4781 78.074 68.2177C78.3086 69.016 78.3447 69.8324 78.3628 70.6489C78.3808 71.9915 78.5253 72.1366 79.7167 72.1548C80.9261 72.1729 81.1789 71.9552 81.1608 70.5944C81.1247 67.9456 80.4026 65.4963 78.9043 63.3191C78.2003 62.2668 77.4602 61.2327 76.4854 60.3799C75.7814 59.6361 74.9691 59.0374 74.0845 58.4931C73.0736 57.8218 73.2361 56.9328 73.6513 56.0075C74.608 53.6126 75.0774 51.1451 74.9871 48.5507C74.951 47.6617 74.4456 47.5891 73.7776 47.5891C73.1097 47.571 72.6765 47.7161 72.6945 48.5325C72.7487 50.4739 72.3876 54.7556 70.402 56.842C67.8567 59.6724 64.6073 61.6318 57.4588 60.7065C56.809 60.5795 56.3396 60.3255 56.5562 59.5272C57.4769 57.2049 57.5671 54.7556 57.7477 52.3063C57.8199 51.381 57.2422 51.127 56.4479 51.0907C55.6536 51.0544 55.0218 51.2359 55.0218 52.1611C54.9857 54.3746 54.4081 56.5336 54.2637 58.7471C53.9387 61.8314 52.7112 64.6073 51.3393 67.3287C50.3284 69.3244 48.9564 71.0662 47.4942 72.7353C47.422 72.8442 47.3318 72.9349 47.2235 73.0075C45.0753 74.9306 42.7827 76.6179 40.0569 77.6521C39.2987 77.9424 38.6669 77.9424 37.9809 77.4706C35.9772 76.1462 33.829 75.9829 31.5365 76.6179C30.1645 76.9989 28.7384 77.1622 27.3304 77.4344C23.4854 77.8698 19.8389 77.3074 16.4813 75.2935C16.2285 75.1483 15.9939 75.0032 15.7773 74.8036C15.2537 74.3138 14.8927 73.6606 13.9901 74.4771C13.0334 75.3479 13.7916 75.8015 14.1887 76.4002C14.2428 76.4728 14.279 76.5454 14.3151 76.5998C15.5787 77.9061 17.2033 78.5774 18.8822 79.1217C22.6369 80.301 28.6843 80.3372 33.5402 78.9221C37.4935 77.7247 38.703 81.444 37.6019 83.857C35.1468 89.191 29.4786 92.2209 23.359 92.0576C14.1526 91.5496 4.44073 85.8527 0.81232 75.5838C-2.4009 66.4941 4.71151 60.1259 6.35422 62.1035C9.33276 64.1355 14.8747 71.6286 24.4782 67.6008C26.3556 66.7663 28.1066 65.6958 29.5688 64.2081C30.2006 63.5731 30.8324 63.4824 31.6809 63.8452C34.0457 64.8794 36.5007 65.0064 38.9918 64.2625C39.389 64.1355 45.3822 60.4888 46.6458 58.1121C47.5303 57.1323 45.9598 55.0822 44.7865 56.207C43.2521 57.6948 41.0859 60.2892 39.1182 61.1419C37.5477 61.8314 35.9411 62.1035 34.2442 61.6681C32.9264 61.3415 32.8542 60.9787 33.6124 59.8538C35.5981 56.9328 39.1724 50.9637 39.6417 49.0406C39.8403 48.206 39.75 47.8431 38.9918 47.5347C38.1795 47.2081 37.7102 47.3533 37.4213 48.2241C36.7354 50.7279 32.5654 56.9146 29.6771 60.4525C28.8828 61.3597 24.2255 64.7161 22.6189 65.2785C16.4993 68.5443 8.2316 60.8698 7.11239 58.2753C4.62125 52.4514 23.3229 32.1131 26.7347 39.4066C27.9081 41.8922 22.3481 46.4461 19.2071 50.4376C17.9615 52.016 19.4779 53.8122 20.4888 52.7417C22.3842 50.5646 29.4786 44.0694 30.0562 37.1206C30.4353 29.2647 41.8982 28.0491 46.5014 28.6115C49.2633 29.0288 49.6605 29.8453 50.4547 31.5144C51.61 33.9456 51.4295 36.4674 50.8158 38.9893C50.3284 41.0213 49.7327 42.9082 48.9023 44.9584C48.3427 46.1558 48.4149 46.1921 49.9673 47.0992C50.4728 47.4258 50.7075 47.1355 50.8699 46.7001C51.8447 44.7588 52.0613 44.0331 52.5848 41.6201C52.7473 40.6222 53.3611 39.9328 54.1012 39.334C57.4047 36.5037 62.2606 37.2476 66.4847 37.8645C68.0372 38.1003 68.1816 35.7417 67.3151 35.4333C65.7626 34.9072 58.3073 34.3991 54.5164 35.9594C53.8304 35.8869 53.8124 35.5784 53.7763 34.8709C53.6318 31.7684 52.4946 29.9723 51.4837 28.7748C50.888 28.0854 51.0143 27.5774 51.8086 27.2508C57.6213 24.6201 69.4272 23.6585 75.8897 25.8175C76.7742 26.1078 77.0811 26.5795 77.0811 27.4141C77.0992 28.9744 77.1172 30.5528 77.0811 32.1131C77.045 33.1291 77.4422 33.5101 78.453 33.492C80.6734 33.4557 82.8757 33.4557 85.0961 33.492C86.4319 33.5101 86.6666 33.746 86.6847 35.0886C86.7208 37.2295 86.7208 39.3703 86.6847 41.5112C86.6666 42.7631 86.3958 43.0352 85.1503 43.0534C83.0201 43.0896 80.89 43.0534 78.7599 43.0715C77.2436 43.0896 77.1172 43.1985 77.1172 44.6681C77.1172 47.1718 77.1172 49.2946 77.0992 51.7076C77.0811 52.6692 77.4602 53.0139 78.4169 53.0139C80.7998 52.9776 83.1826 52.9776 85.5474 53.0139C86.45 53.032 86.7749 52.6692 86.7749 51.762C86.7388 49.5304 86.7569 47.317 86.7749 45.0854C86.793 43.4525 87.1179 43.1078 88.7426 43.1078C93.9956 43.0896 99.2487 43.0896 104.484 43.1078C105.928 43.1078 106.144 43.3436 106.163 44.7407C106.181 46.8815 106.181 49.0224 106.163 51.1633C106.144 52.6873 105.91 52.9232 104.339 52.9232C102.245 52.9413 100.151 52.9232 98.0573 52.9232C97.4796 52.9232 96.8659 52.8506 96.6493 53.5944C96.6132 53.7396 96.5951 58.8922 96.559 61.3234C96.5409 62.285 96.902 62.6478 97.8587 62.6297C100.025 62.5934 102.191 62.6115 104.357 62.6297C105.928 62.6478 106.163 62.8655 106.163 64.4077C106.181 66.5486 106.253 68.6894 106.163 70.8122C106.072 72.699 105.368 72.4087 104.971 72.3725C103.996 71.9552 99.3931 71.2839 93.075 75.7108C88.3996 78.9947 69.5716 87.7396 59.8958 79.8655C58.3795 78.8677 55.2565 75.7289 54.9316 75.4568C53.7582 74.4408 51.9169 76.3458 52.982 77.3799C54.9316 79.2668 56.5201 80.5005 58.6683 81.9701C59.0293 82.206 59.4987 82.3874 59.4084 82.9861C58.4878 85.7257 49.3175 88.683 48.7218 88.8282C47.2596 89.5902 47.8914 91.4045 49.4438 91.1323C52.2058 90.334 59.0293 87.1227 60.4915 85.8164C62.9105 83.5848 62.3509 83.6937 65.0406 84.4194C75.6189 88.556 93.0028 78.5955 95.2773 77.0896C97.6963 75.5112 104.971 72.3362 108.257 76.3276C110.73 77.9787 114.412 83.8933 114.629 84.4194C115.261 86.9413 113.131 89.6628 112.372 90.588C110.314 92.8378 108.347 94.4162 105.928 95.8677C103.671 96.92 101.379 97.8997 98.9599 98.4621C95.5481 99.2423 92.0641 99.6777 88.7065 98.2988C85.3488 96.92 83.5978 94.0171 85.3669 90.7513C87.6234 87.2679 94.9524 84.6371 98.5086 85.127C100.151 85.3629 99.9347 82.587 98.4544 82.587C94.1401 82.6233 83.9949 84.3106 82.2078 92.9829C81.919 95.8132 85.3308 102.29 95.0426 101.565C96.4507 101.383 98.6711 113.14 98.7433 114.301C98.8696 116.315 98.2378 117.73 96.4687 118.619C93.075 120.869 88.4176 109.493 78.0559 106.209C75.0413 105.483 70.0048 102.98 68.9398 101.891Z" fill="#EE771B"/>
<path d="M124.792 0C125.803 0 125.947 0.290288 125.947 1.21558C125.875 7.05763 125.839 12.8997 125.821 18.7236C125.821 19.5582 125.676 19.7033 124.72 19.7033C122.283 19.7214 119.936 19.6852 117.481 19.7214C116.506 19.7396 116.127 19.4493 116.145 18.4877C116.181 16.2198 116.163 13.952 116.163 11.7022C116.163 9.96051 116.163 9.96051 114.358 9.96051C112.228 9.96051 110.098 9.92422 107.968 9.97865C106.83 10.0149 106.487 9.67022 106.433 8.4365C106.379 5.78762 106.433 3.59232 106.379 1.16115C106.379 0.018143 106.668 0.036286 107.462 0.036286C110.369 0.036286 121.94 0 124.792 0Z" fill="#EE771B"/>
<path d="M87.0637 20.8282C87.0457 20.0481 87.3345 19.6489 88.1107 19.6489C90.6921 19.6489 93.2735 19.6489 95.855 19.6489C96.559 19.6489 96.7575 20.0299 96.7575 20.6649C96.7395 23.2594 96.7395 25.8538 96.7575 28.4483C96.7575 29.1922 96.4687 29.5006 95.7466 29.5006C93.2013 29.4824 90.6741 29.4824 88.1288 29.5006C87.3345 29.5006 87.0457 29.174 87.0637 28.3757C87.1179 27.1238 87.1179 22.0982 87.0637 20.8282Z" fill="#EE771B"/>
<path d="M115.929 63.1196C115.929 62.8837 115.947 62.666 115.947 62.4301C116.272 61.9947 116.741 62.0491 117.174 62.0491C119.376 62.031 121.597 62.0129 123.817 62.0491C125.063 62.0673 125.334 62.3213 125.352 63.5913C125.388 65.8592 125.388 68.1271 125.352 70.3768C125.334 71.5742 125.207 71.8282 123.889 71.8282C121.236 71.9734 121.019 71.8282 119.413 74.5315C119.015 75.2935 116.669 79.031 116.542 79.1943C115.874 80.1196 115.694 80.1196 115.152 79.158C114.16 77.4163 111.181 74.0235 108.78 72.7535C108.184 72.1185 108.744 72.1548 109.141 72.1548C111 72.1367 112.86 72.1548 114.719 72.1367C115.152 72.1367 115.64 72.2818 115.911 71.7738C115.911 71.7012 116.109 65.9318 115.929 63.1196Z" fill="#EE771B"/>
<path d="M77.5143 14.2241C77.5143 13.0266 77.5324 11.8292 77.4963 10.6317C77.4782 9.96045 77.6949 9.67017 78.3989 9.67017C80.8539 9.70645 83.327 9.68831 85.7821 9.67017C86.4319 9.67017 86.6305 9.92417 86.6305 10.5592C86.6124 13.0266 86.6124 15.4941 86.6305 17.9797C86.6305 18.5965 86.45 18.8687 85.7821 18.8687C83.327 18.8505 80.8539 18.8324 78.3989 18.8687C77.6949 18.8687 77.4602 18.5965 77.4963 17.9252C77.5324 16.6915 77.5143 15.4578 77.5143 14.2241Z" fill="#EE771B"/>
<path d="M116.199 28.1216C116.199 29.3553 116.163 30.5891 116.217 31.8228C116.235 32.6392 115.892 32.9114 115.116 32.9114C112.625 32.8932 110.116 32.8932 107.625 32.9114C106.758 32.9295 106.505 32.5485 106.505 31.7139C106.524 29.1558 106.487 26.6158 106.469 24.0576C106.469 23.35 106.722 23.0234 107.48 23.0234C110.062 23.0416 112.643 23.0416 115.224 23.0234C115.965 23.0234 116.253 23.2774 116.235 24.0394C116.181 25.4183 116.199 26.7609 116.199 28.1216Z" fill="#EE771B"/>
<path d="M121.073 52.3789C119.846 52.3789 118.618 52.3426 117.391 52.397C116.578 52.4151 116.163 52.1249 116.181 51.254C116.199 48.7502 116.199 46.2284 116.181 43.7246C116.163 42.8719 116.506 42.5635 117.337 42.5635C119.792 42.5998 122.247 42.5453 124.72 42.5998C125.568 42.6179 125.875 42.3639 125.857 41.493C125.803 39.0256 125.857 36.5581 125.821 34.0907C125.803 33.238 126.11 32.9114 126.958 32.9114C129.504 32.9477 132.031 32.9477 134.576 32.9114C135.37 32.8933 135.659 33.2017 135.641 34C135.605 36.4674 135.587 38.9349 135.641 41.4023C135.659 42.3458 135.262 42.6179 134.396 42.5998C131.94 42.5635 129.485 42.6179 127.012 42.5635C126.218 42.5453 125.929 42.8175 125.929 43.6158C125.947 46.1558 125.893 48.714 125.875 51.254C125.875 52.0523 125.695 52.4514 124.738 52.3426C123.528 52.2156 122.283 52.3063 121.055 52.3063C121.073 52.3426 121.073 52.3607 121.073 52.3789Z" fill="#EE771B"/>
<path d="M158.91 107.789H159.903C160.011 107.789 160.101 107.807 160.173 107.862C160.246 107.916 160.282 107.989 160.318 108.061L162.141 114.23C162.177 114.339 162.195 114.466 162.231 114.593C162.249 114.72 162.286 114.847 162.304 114.992C162.34 114.847 162.358 114.72 162.394 114.593C162.43 114.466 162.448 114.339 162.484 114.23L164.56 108.061C164.578 107.989 164.632 107.934 164.704 107.862C164.777 107.807 164.867 107.771 164.957 107.771H165.3C165.408 107.771 165.499 107.789 165.571 107.844C165.643 107.898 165.679 107.971 165.715 108.043L167.773 114.212C167.845 114.429 167.918 114.665 167.972 114.956C167.99 114.81 168.026 114.683 168.044 114.575C168.062 114.448 168.098 114.339 168.116 114.23L169.939 108.061C169.958 107.989 170.012 107.916 170.084 107.862C170.156 107.807 170.246 107.771 170.337 107.771H171.257L168.513 116.643H167.448L165.21 109.876C165.174 109.749 165.12 109.603 165.084 109.422C165.066 109.513 165.047 109.585 165.029 109.658C165.011 109.73 164.993 109.803 164.975 109.857L162.737 116.625H161.672L158.91 107.789Z" fill="#004A8B"/>
<path d="M177.864 107.788V108.768H173.622V111.707H177.052V112.65H173.622V115.68H177.864V116.66H172.431V107.788H177.864Z" fill="#004A8B"/>
<path d="M179.579 116.66V107.788H182.395C182.937 107.788 183.406 107.842 183.803 107.951C184.2 108.06 184.525 108.205 184.778 108.405C185.031 108.604 185.211 108.84 185.338 109.13C185.464 109.421 185.518 109.747 185.518 110.092C185.518 110.31 185.482 110.527 185.41 110.727C185.338 110.927 185.247 111.126 185.103 111.289C184.959 111.471 184.796 111.616 184.58 111.761C184.381 111.906 184.128 112.015 183.857 112.088C184.507 112.215 184.995 112.451 185.32 112.795C185.645 113.14 185.807 113.575 185.807 114.138C185.807 114.519 185.735 114.864 185.608 115.172C185.464 115.48 185.265 115.753 185.013 115.97C184.742 116.188 184.417 116.369 184.038 116.478C183.659 116.605 183.208 116.66 182.72 116.66H179.579ZM180.771 111.761H182.341C182.684 111.761 182.973 111.725 183.208 111.652C183.46 111.58 183.659 111.471 183.821 111.344C183.984 111.217 184.11 111.054 184.182 110.872C184.255 110.691 184.291 110.473 184.291 110.255C184.291 109.729 184.128 109.348 183.821 109.112C183.514 108.876 183.027 108.749 182.377 108.749H180.753V111.761H180.771ZM180.771 112.614V115.698H182.684C183.027 115.698 183.316 115.662 183.569 115.589C183.821 115.517 184.02 115.408 184.164 115.263C184.327 115.118 184.435 114.954 184.507 114.755C184.58 114.555 184.616 114.337 184.616 114.102C184.616 113.648 184.453 113.285 184.128 113.013C183.803 112.741 183.316 112.614 182.666 112.614H180.771Z" fill="#004A8B"/>
<path d="M187.053 115.898C187.053 115.807 187.071 115.716 187.107 115.626C187.143 115.535 187.197 115.462 187.251 115.408C187.305 115.353 187.396 115.299 187.486 115.263C187.576 115.226 187.666 115.208 187.775 115.208C187.901 115.208 188.009 115.226 188.1 115.281C188.19 115.317 188.28 115.39 188.334 115.462C188.406 115.535 188.443 115.644 188.479 115.734C188.515 115.843 188.533 115.952 188.533 116.079C188.533 116.261 188.515 116.46 188.461 116.66C188.406 116.859 188.334 117.059 188.226 117.258C188.136 117.458 188.009 117.639 187.865 117.839C187.72 118.02 187.558 118.202 187.377 118.347L187.197 118.166C187.143 118.111 187.125 118.057 187.125 117.984C187.125 117.93 187.161 117.875 187.215 117.821C187.251 117.785 187.305 117.712 187.377 117.639C187.45 117.567 187.504 117.476 187.576 117.385C187.648 117.295 187.702 117.186 187.757 117.059C187.811 116.932 187.847 116.805 187.883 116.678H187.811C187.702 116.678 187.612 116.66 187.522 116.623C187.432 116.587 187.359 116.533 187.305 116.46C187.251 116.388 187.197 116.315 187.161 116.224C187.071 116.115 187.053 116.007 187.053 115.898Z" fill="#004A8B"/>
<path d="M197.053 109.185C197.017 109.239 196.981 109.294 196.945 109.33C196.909 109.366 196.855 109.384 196.783 109.384C196.71 109.384 196.638 109.348 196.548 109.275C196.458 109.203 196.331 109.13 196.205 109.04C196.06 108.949 195.898 108.876 195.699 108.804C195.501 108.731 195.266 108.695 194.977 108.695C194.707 108.695 194.472 108.731 194.273 108.804C194.075 108.876 193.894 108.967 193.768 109.094C193.623 109.221 193.533 109.366 193.461 109.529C193.389 109.693 193.353 109.874 193.353 110.074C193.353 110.328 193.407 110.527 193.533 110.691C193.66 110.854 193.822 110.999 194.021 111.108C194.219 111.217 194.454 111.326 194.707 111.416C194.959 111.507 195.212 111.58 195.483 111.688C195.754 111.779 196.006 111.888 196.259 111.997C196.512 112.106 196.728 112.251 196.927 112.432C197.125 112.614 197.288 112.813 197.414 113.067C197.541 113.321 197.595 113.63 197.595 113.993C197.595 114.374 197.523 114.736 197.396 115.081C197.27 115.426 197.071 115.716 196.819 115.97C196.566 116.224 196.259 116.424 195.898 116.569C195.537 116.714 195.122 116.787 194.652 116.787C194.075 116.787 193.569 116.678 193.1 116.478C192.631 116.279 192.233 115.988 191.891 115.625L192.233 115.063C192.27 115.027 192.306 114.972 192.36 114.954C192.414 114.918 192.468 114.9 192.522 114.9C192.613 114.9 192.703 114.954 192.811 115.045C192.919 115.136 193.064 115.244 193.226 115.353C193.389 115.462 193.587 115.571 193.822 115.662C194.057 115.752 194.346 115.807 194.689 115.807C194.977 115.807 195.23 115.771 195.447 115.698C195.663 115.625 195.862 115.517 196.006 115.371C196.169 115.226 196.277 115.063 196.367 114.863C196.458 114.664 196.494 114.446 196.494 114.21C196.494 113.938 196.44 113.72 196.313 113.557C196.187 113.394 196.024 113.249 195.844 113.122C195.645 113.013 195.429 112.904 195.176 112.831C194.923 112.759 194.67 112.668 194.4 112.577C194.129 112.487 193.876 112.396 193.623 112.287C193.371 112.178 193.154 112.033 192.956 111.852C192.757 111.67 192.595 111.453 192.486 111.18C192.36 110.908 192.306 110.582 192.306 110.201C192.306 109.892 192.36 109.584 192.486 109.294C192.613 109.003 192.775 108.749 193.01 108.513C193.244 108.278 193.515 108.096 193.858 107.969C194.201 107.842 194.58 107.77 195.032 107.77C195.519 107.77 195.97 107.842 196.385 108.005C196.801 108.169 197.144 108.386 197.45 108.677L197.053 109.185Z" fill="#004A8B"/>
<path d="M200.465 116.66H199.274V107.788H200.465V116.66Z" fill="#004A8B"/>
<path d="M207.361 109.185C207.325 109.239 207.289 109.294 207.253 109.33C207.216 109.366 207.162 109.384 207.09 109.384C207.018 109.384 206.946 109.348 206.855 109.275C206.765 109.203 206.639 109.13 206.512 109.04C206.368 108.949 206.206 108.876 206.007 108.804C205.808 108.731 205.574 108.695 205.285 108.695C205.014 108.695 204.78 108.731 204.581 108.804C204.382 108.876 204.202 108.967 204.075 109.094C203.931 109.221 203.841 109.366 203.769 109.529C203.696 109.693 203.66 109.874 203.66 110.074C203.66 110.328 203.714 110.527 203.841 110.691C203.967 110.854 204.13 110.999 204.328 111.108C204.527 111.217 204.761 111.326 205.014 111.416C205.267 111.507 205.52 111.58 205.79 111.688C206.061 111.779 206.314 111.888 206.567 111.997C206.819 112.106 207.036 112.251 207.235 112.432C207.433 112.614 207.596 112.813 207.722 113.067C207.848 113.321 207.902 113.63 207.902 113.993C207.902 114.374 207.83 114.736 207.704 115.081C207.578 115.426 207.379 115.716 207.126 115.97C206.874 116.224 206.567 116.424 206.206 116.569C205.845 116.714 205.429 116.787 204.96 116.787C204.382 116.787 203.877 116.678 203.408 116.478C202.938 116.279 202.541 115.988 202.198 115.625L202.541 115.063C202.577 115.027 202.613 114.972 202.667 114.954C202.722 114.918 202.776 114.9 202.83 114.9C202.92 114.9 203.01 114.954 203.119 115.045C203.227 115.136 203.371 115.244 203.534 115.353C203.696 115.462 203.895 115.571 204.13 115.662C204.364 115.752 204.653 115.807 204.996 115.807C205.285 115.807 205.538 115.771 205.754 115.698C205.971 115.625 206.169 115.517 206.314 115.371C206.476 115.226 206.585 115.063 206.675 114.863C206.765 114.664 206.801 114.446 206.801 114.21C206.801 113.938 206.747 113.72 206.621 113.557C206.494 113.394 206.332 113.249 206.151 113.122C205.953 113.013 205.736 112.904 205.484 112.831C205.231 112.759 204.978 112.668 204.707 112.577C204.437 112.487 204.184 112.396 203.931 112.287C203.678 112.178 203.462 112.033 203.263 111.852C203.065 111.67 202.902 111.453 202.794 111.18C202.667 110.908 202.613 110.582 202.613 110.201C202.613 109.892 202.667 109.584 202.794 109.294C202.92 109.003 203.083 108.749 203.317 108.513C203.552 108.278 203.823 108.096 204.166 107.969C204.509 107.842 204.888 107.77 205.339 107.77C205.827 107.77 206.278 107.842 206.693 108.005C207.108 108.169 207.451 108.386 207.758 108.677L207.361 109.185Z" fill="#004A8B"/>
<path d="M215.358 107.788V108.804H212.506V116.66H211.314V108.804H208.444V107.788H215.358Z" fill="#004A8B"/>
<path d="M222.055 107.788V108.768H217.813V111.707H221.243V112.65H217.813V115.68H222.055V116.66H216.621V107.788H222.055Z" fill="#004A8B"/>
<path d="M228.265 113.757C228.301 113.866 228.355 113.975 228.391 114.083C228.427 113.975 228.482 113.866 228.518 113.757C228.554 113.648 228.608 113.539 228.68 113.43L231.659 107.987C231.713 107.897 231.767 107.842 231.821 107.806C231.875 107.788 231.966 107.77 232.074 107.77H232.958V116.642H231.911V110.128C231.911 110.037 231.911 109.947 231.911 109.856C231.911 109.765 231.929 109.656 231.929 109.548L228.915 115.081C228.806 115.263 228.662 115.353 228.482 115.353H228.301C228.121 115.353 227.976 115.263 227.868 115.081L224.781 109.511C224.799 109.62 224.799 109.729 224.817 109.82C224.817 109.929 224.817 110.019 224.817 110.11V116.623H223.77V107.751H224.655C224.763 107.751 224.835 107.77 224.907 107.788C224.961 107.806 225.016 107.86 225.07 107.969L228.121 113.43C228.175 113.557 228.229 113.648 228.265 113.757Z" fill="#004A8B"/>
<path d="M242.363 116.66H241.443C241.334 116.66 241.244 116.642 241.19 116.587C241.118 116.533 241.082 116.46 241.045 116.388L240.215 114.247H236.262L235.431 116.388C235.395 116.46 235.359 116.533 235.287 116.587C235.215 116.642 235.124 116.678 235.034 116.678H234.114L237.634 107.806H238.843L242.363 116.66ZM236.569 113.358H239.854L238.464 109.747C238.374 109.53 238.284 109.239 238.193 108.913C238.157 109.076 238.103 109.239 238.067 109.384C238.031 109.53 237.977 109.657 237.941 109.765L236.569 113.358Z" fill="#004A8B"/>
<path d="M247.995 109.185C247.959 109.239 247.923 109.294 247.887 109.33C247.851 109.366 247.797 109.384 247.725 109.384C247.652 109.384 247.58 109.348 247.49 109.275C247.4 109.203 247.273 109.13 247.147 109.04C247.003 108.949 246.84 108.876 246.642 108.804C246.443 108.731 246.208 108.695 245.919 108.695C245.649 108.695 245.414 108.731 245.215 108.804C245.017 108.876 244.836 108.967 244.71 109.094C244.566 109.221 244.475 109.366 244.403 109.529C244.331 109.693 244.295 109.874 244.295 110.074C244.295 110.328 244.349 110.527 244.475 110.691C244.602 110.854 244.764 110.999 244.963 111.108C245.161 111.217 245.396 111.326 245.649 111.416C245.901 111.507 246.154 111.58 246.425 111.688C246.696 111.779 246.948 111.888 247.201 111.997C247.454 112.106 247.671 112.251 247.869 112.432C248.068 112.614 248.23 112.813 248.356 113.067C248.483 113.321 248.537 113.63 248.537 113.993C248.537 114.374 248.465 114.736 248.338 115.081C248.212 115.426 248.013 115.716 247.761 115.97C247.508 116.224 247.201 116.424 246.84 116.569C246.479 116.714 246.064 116.787 245.595 116.787C245.017 116.787 244.511 116.678 244.042 116.478C243.573 116.279 243.176 115.988 242.833 115.625L243.176 115.063C243.212 115.027 243.248 114.972 243.302 114.954C243.356 114.918 243.41 114.9 243.464 114.9C243.555 114.9 243.645 114.954 243.753 115.045C243.862 115.136 244.006 115.244 244.168 115.353C244.331 115.462 244.529 115.571 244.764 115.662C244.999 115.752 245.288 115.807 245.631 115.807C245.92 115.807 246.172 115.771 246.389 115.698C246.605 115.625 246.804 115.517 246.948 115.371C247.111 115.226 247.219 115.063 247.309 114.863C247.4 114.664 247.436 114.446 247.436 114.21C247.436 113.938 247.382 113.72 247.255 113.557C247.129 113.394 246.967 113.249 246.786 113.122C246.587 113.013 246.371 112.904 246.118 112.831C245.865 112.759 245.613 112.668 245.342 112.577C245.071 112.487 244.818 112.396 244.566 112.287C244.313 112.178 244.096 112.033 243.898 111.852C243.699 111.67 243.537 111.453 243.428 111.18C243.302 110.908 243.248 110.582 243.248 110.201C243.248 109.892 243.302 109.584 243.428 109.294C243.555 109.003 243.717 108.749 243.952 108.513C244.187 108.278 244.457 108.096 244.8 107.969C245.143 107.842 245.522 107.77 245.974 107.77C246.461 107.77 246.912 107.842 247.328 108.005C247.743 108.169 248.086 108.386 248.393 108.677L247.995 109.185Z" fill="#004A8B"/>
<path d="M255.361 107.697C255.685 107.697 255.974 107.751 256.245 107.86C256.516 107.969 256.75 108.096 256.931 108.278C257.13 108.459 257.274 108.659 257.4 108.876C257.509 109.112 257.581 109.348 257.599 109.584L256.913 109.711C256.895 109.711 256.877 109.711 256.859 109.711C256.805 109.711 256.751 109.693 256.714 109.675C256.66 109.638 256.642 109.602 256.606 109.511C256.57 109.402 256.534 109.294 256.462 109.185C256.389 109.076 256.317 108.967 256.209 108.876C256.101 108.786 255.992 108.695 255.848 108.64C255.703 108.586 255.541 108.55 255.361 108.55C255.162 108.55 254.963 108.586 254.801 108.64C254.638 108.713 254.494 108.804 254.386 108.913C254.277 109.021 254.187 109.167 254.115 109.33C254.043 109.493 254.025 109.656 254.025 109.838C254.025 109.983 254.043 110.128 254.079 110.255C254.115 110.382 254.169 110.527 254.241 110.654C254.314 110.781 254.404 110.926 254.512 111.072C254.62 111.217 254.765 111.362 254.909 111.525L257.436 114.12C257.599 113.848 257.725 113.557 257.816 113.249C257.906 112.94 257.978 112.65 257.996 112.342C257.996 112.269 258.032 112.196 258.068 112.16C258.104 112.124 258.159 112.088 258.249 112.088H258.935C258.935 112.559 258.844 113.031 258.7 113.485C258.556 113.938 258.357 114.374 258.086 114.773L259.928 116.66H258.863C258.736 116.66 258.646 116.642 258.574 116.623C258.502 116.587 258.411 116.533 258.321 116.442L257.436 115.553C257.057 115.934 256.606 116.224 256.101 116.442C255.595 116.66 255.054 116.769 254.44 116.769C254.115 116.769 253.79 116.714 253.465 116.605C253.14 116.496 252.869 116.333 252.617 116.115C252.364 115.898 252.165 115.644 252.021 115.335C251.877 115.027 251.786 114.682 251.786 114.301C251.786 114.011 251.84 113.739 251.931 113.485C252.021 113.231 252.165 112.995 252.328 112.777C252.49 112.559 252.707 112.36 252.942 112.196C253.176 112.015 253.429 111.87 253.718 111.743C253.465 111.434 253.285 111.108 253.158 110.818C253.032 110.509 252.978 110.201 252.978 109.892C252.978 109.584 253.032 109.312 253.14 109.04C253.248 108.767 253.411 108.55 253.609 108.35C253.808 108.151 254.061 108.005 254.35 107.878C254.675 107.751 254.999 107.697 255.361 107.697ZM252.924 114.21C252.924 114.483 252.978 114.718 253.068 114.918C253.158 115.118 253.303 115.299 253.447 115.426C253.609 115.571 253.79 115.68 253.989 115.753C254.187 115.825 254.404 115.861 254.62 115.861C255.072 115.861 255.487 115.771 255.866 115.607C256.227 115.444 256.552 115.208 256.841 114.936L254.241 112.287C253.808 112.523 253.483 112.795 253.267 113.14C253.032 113.466 252.924 113.811 252.924 114.21Z" fill="#004A8B"/>
<path d="M267.888 113.757C267.925 113.866 267.979 113.975 268.015 114.083C268.051 113.975 268.105 113.866 268.141 113.757C268.177 113.648 268.231 113.539 268.304 113.43L271.282 107.987C271.336 107.897 271.39 107.842 271.445 107.806C271.499 107.788 271.589 107.77 271.697 107.77H272.582V116.642H271.535V110.128C271.535 110.037 271.535 109.947 271.535 109.856C271.535 109.765 271.553 109.656 271.553 109.548L268.538 115.081C268.43 115.263 268.286 115.353 268.105 115.353H267.925C267.744 115.353 267.6 115.263 267.491 115.081L264.404 109.511C264.423 109.62 264.422 109.729 264.422 109.82C264.422 109.929 264.441 110.019 264.441 110.11V116.623H263.394V107.751H264.278C264.386 107.751 264.459 107.77 264.531 107.788C264.585 107.806 264.639 107.86 264.693 107.969L267.744 113.43C267.798 113.557 267.852 113.648 267.888 113.757Z" fill="#004A8B"/>
<path d="M281.987 116.66H281.066C280.958 116.66 280.868 116.642 280.814 116.587C280.741 116.533 280.705 116.46 280.669 116.388L279.839 114.247H275.885L275.055 116.388C275.019 116.46 274.983 116.533 274.911 116.587C274.838 116.642 274.748 116.678 274.658 116.678H273.737L277.257 107.806H278.467L281.987 116.66ZM276.21 113.358H279.496L278.106 109.747C278.016 109.53 277.925 109.239 277.835 108.913C277.799 109.076 277.745 109.239 277.709 109.384C277.673 109.53 277.618 109.657 277.582 109.765L276.21 113.358Z" fill="#004A8B"/>
<path d="M284.406 112.959V116.66H283.215V107.788H285.706C286.265 107.788 286.753 107.842 287.15 107.951C287.565 108.06 287.89 108.223 288.161 108.441C288.431 108.659 288.612 108.913 288.756 109.221C288.883 109.53 288.955 109.856 288.955 110.237C288.955 110.546 288.901 110.836 288.811 111.108C288.72 111.38 288.576 111.616 288.377 111.834C288.197 112.051 287.962 112.233 287.691 112.378C287.421 112.523 287.114 112.65 286.771 112.723C286.915 112.813 287.041 112.94 287.168 113.104L289.749 116.623H288.684C288.468 116.623 288.305 116.533 288.197 116.369L285.904 113.194C285.832 113.104 285.76 113.031 285.67 112.977C285.579 112.94 285.471 112.904 285.309 112.904H284.406V112.959ZM284.406 112.088H285.652C285.995 112.088 286.301 112.051 286.572 111.961C286.843 111.87 287.06 111.761 287.24 111.598C287.421 111.435 287.547 111.253 287.637 111.035C287.727 110.818 287.782 110.582 287.782 110.328C287.782 109.802 287.601 109.403 287.258 109.13C286.915 108.858 286.392 108.731 285.706 108.731H284.406V112.088Z" fill="#004A8B"/>
<path d="M292.331 111.67H292.782C292.944 111.67 293.071 111.652 293.161 111.616C293.251 111.58 293.342 111.507 293.414 111.416L296.356 108.078C296.446 107.969 296.537 107.897 296.609 107.86C296.699 107.824 296.807 107.788 296.934 107.788H297.945L294.587 111.598C294.497 111.688 294.425 111.779 294.352 111.834C294.28 111.906 294.19 111.961 294.118 111.997C294.226 112.033 294.334 112.088 294.425 112.16C294.515 112.233 294.605 112.323 294.695 112.432L298.197 116.641H297.168C297.096 116.641 297.024 116.641 296.97 116.623C296.916 116.605 296.88 116.587 296.825 116.569C296.789 116.551 296.753 116.514 296.717 116.496C296.681 116.46 296.645 116.424 296.627 116.387L293.576 112.868C293.522 112.813 293.486 112.777 293.45 112.741C293.414 112.704 293.36 112.668 293.305 112.65C293.251 112.632 293.197 112.614 293.125 112.596C293.053 112.577 292.981 112.577 292.872 112.577H292.331V116.641H291.139V107.77H292.331V111.67Z" fill="#004A8B"/>
<path d="M304.841 107.788V108.768H300.598V111.707H304.028V112.65H300.598V115.68H304.841V116.66H299.407V107.788H304.841Z" fill="#004A8B"/>
<path d="M312.567 107.788V108.804H309.714V116.66H308.523V108.804H305.653V107.788H312.567Z" fill="#004A8B"/>
<path d="M315.238 116.66H314.047V107.788H315.238V116.66Z" fill="#004A8B"/>
<path d="M318.452 107.824C318.506 107.842 318.56 107.897 318.632 107.987L323.741 114.664C323.723 114.555 323.723 114.446 323.723 114.356C323.723 114.247 323.723 114.156 323.723 114.065V107.788H324.77V116.66H324.174C324.084 116.66 323.994 116.642 323.939 116.605C323.867 116.569 323.813 116.515 323.759 116.442L318.65 109.765C318.65 109.874 318.668 109.965 318.668 110.074C318.668 110.165 318.668 110.255 318.668 110.346V116.66H317.621V107.788H318.235C318.325 107.788 318.397 107.806 318.452 107.824Z" fill="#004A8B"/>
<path d="M330.835 115.789C331.07 115.789 331.286 115.771 331.485 115.752C331.683 115.734 331.864 115.698 332.045 115.644C332.225 115.607 332.388 115.553 332.55 115.48C332.712 115.426 332.857 115.335 333.019 115.263V113.303H331.647C331.575 113.303 331.503 113.285 331.467 113.231C331.413 113.194 331.395 113.122 331.395 113.067V112.396H334.102V115.807C333.886 115.97 333.651 116.115 333.416 116.224C333.182 116.351 332.929 116.442 332.64 116.533C332.369 116.605 332.081 116.678 331.756 116.714C331.449 116.75 331.106 116.768 330.745 116.768C330.113 116.768 329.517 116.66 328.976 116.442C328.434 116.224 327.983 115.916 327.604 115.517C327.225 115.117 326.918 114.646 326.701 114.083C326.485 113.521 326.376 112.922 326.376 112.251C326.376 111.58 326.485 110.963 326.701 110.4C326.918 109.838 327.207 109.366 327.604 108.967C328.001 108.568 328.47 108.259 329.03 108.042C329.589 107.824 330.203 107.715 330.889 107.715C331.232 107.715 331.557 107.733 331.864 107.788C332.171 107.842 332.442 107.915 332.694 108.005C332.947 108.096 333.182 108.223 333.398 108.35C333.615 108.495 333.814 108.64 334.012 108.822L333.669 109.366C333.597 109.475 333.507 109.529 333.398 109.529C333.326 109.529 333.254 109.511 333.182 109.457C333.073 109.402 332.965 109.33 332.839 109.239C332.712 109.148 332.55 109.076 332.369 109.003C332.189 108.931 331.972 108.858 331.72 108.804C331.467 108.749 331.178 108.731 330.835 108.731C330.33 108.731 329.896 108.804 329.481 108.967C329.084 109.13 328.741 109.366 328.452 109.675C328.163 109.983 327.947 110.346 327.802 110.781C327.658 111.217 327.568 111.688 327.568 112.233C327.568 112.795 327.64 113.285 327.802 113.739C327.965 114.174 328.181 114.555 328.47 114.863C328.759 115.172 329.102 115.408 329.499 115.571C329.932 115.698 330.366 115.789 330.835 115.789Z" fill="#004A8B"/>
<path d="M175.788 30.3351C175.788 31.7684 175.608 33.0566 175.265 34.1814C174.904 35.3063 174.434 36.3042 173.839 37.1569C173.243 38.0277 172.539 38.7535 171.763 39.3703C170.968 39.9872 170.156 40.4771 169.29 40.8762C168.423 41.2753 167.575 41.5656 166.69 41.7289C165.806 41.8922 164.993 42.0011 164.217 42.0011L177.268 53.3405H167.611L154.577 42.0011H150.083V35.7236H164.217C165.011 35.651 165.715 35.4877 166.365 35.2337C167.015 34.9616 167.575 34.6169 168.044 34.1633C168.513 33.7097 168.874 33.1654 169.145 32.5304C169.416 31.8954 169.524 31.1697 169.524 30.3351V26.3799C169.524 26.0171 169.488 25.7631 169.398 25.5635C169.308 25.3821 169.199 25.2369 169.055 25.1462C168.911 25.0555 168.766 25.0011 168.622 24.9829C168.477 24.9648 168.333 24.9648 168.207 24.9648H147.573V53.3405H141.327V21.8623C141.327 21.4269 141.4 21.0096 141.562 20.6286C141.725 20.2476 141.941 19.9029 142.23 19.6126C142.519 19.3223 142.844 19.1046 143.223 18.9413C143.602 18.778 144.017 18.7054 144.468 18.7054H168.207C169.596 18.7054 170.788 18.9594 171.745 19.4674C172.701 19.9755 173.496 20.6105 174.091 21.3725C174.687 22.1345 175.12 22.9691 175.391 23.8581C175.662 24.7471 175.788 25.5816 175.788 26.3437V30.3351Z" fill="#004A8B"/>
<path d="M213.21 53.3405H190.663C189.796 53.3405 188.858 53.1953 187.829 52.8869C186.8 52.5784 185.861 52.0704 184.977 51.381C184.11 50.6734 183.37 49.7663 182.792 48.6414C182.215 47.5165 181.908 46.1558 181.908 44.5229V21.8623C181.908 21.4269 181.98 21.0096 182.143 20.6286C182.305 20.2476 182.522 19.9029 182.81 19.6126C183.099 19.3223 183.424 19.1046 183.803 18.9413C184.182 18.778 184.598 18.7054 185.049 18.7054H213.21V24.9829H188.154V44.5229C188.154 45.3394 188.37 45.9744 188.804 46.4098C189.237 46.8453 189.869 47.063 190.699 47.063H213.21V53.3405ZM210.394 39.1889H190.663V32.857H210.394V39.1889Z" fill="#004A8B"/>
<path d="M253.068 53.3404H246.822V44.8313H224.853V53.3404H218.607V36.0138C218.607 33.492 219.04 31.1515 219.907 29.0288C220.773 26.906 221.983 25.0736 223.517 23.5496C225.052 22.0256 226.875 20.8281 228.969 19.9754C231.063 19.1227 233.355 18.6873 235.847 18.6873H249.927C250.36 18.6873 250.775 18.7598 251.154 18.9231C251.534 19.0864 251.877 19.3041 252.165 19.5944C252.454 19.8847 252.671 20.2294 252.833 20.6104C252.996 20.9914 253.068 21.4087 253.068 21.8441V53.3404ZM224.853 38.5539H246.822V24.9647H235.828C235.63 24.9647 235.233 25.001 234.619 25.0555C234.005 25.1099 233.283 25.255 232.471 25.4727C231.659 25.6905 230.81 26.0533 229.907 26.5069C229.005 26.9786 228.193 27.6136 227.434 28.4482C226.676 29.2646 226.062 30.2988 225.575 31.5325C225.088 32.7662 224.835 34.254 224.835 36.0138V38.5539H224.853Z" fill="#004A8B"/>
<path d="M291.211 53.3405H268.665C268.087 53.3405 267.473 53.2679 266.805 53.1409C266.137 52.9957 265.488 52.7962 264.838 52.5059C264.188 52.2156 263.574 51.8346 262.978 51.381C262.383 50.9274 261.859 50.365 261.408 49.7118C260.957 49.0587 260.578 48.2967 260.307 47.444C260.036 46.5731 259.892 45.6115 259.892 44.5411V27.5229C259.892 26.9424 259.964 26.3255 260.09 25.6542C260.235 24.9829 260.433 24.3298 260.722 23.6766C261.011 23.0235 261.39 22.4066 261.859 21.8079C262.329 21.2092 262.888 20.683 263.538 20.2295C264.188 19.7759 264.928 19.3949 265.794 19.1227C266.643 18.8506 267.6 18.7054 268.683 18.7054H291.229V24.9829H268.683C267.87 24.9829 267.239 25.2006 266.805 25.6361C266.372 26.0715 266.156 26.7065 266.156 27.5774V44.5411C266.156 45.3394 266.372 45.9744 266.823 46.4098C267.257 46.8453 267.888 47.0811 268.683 47.0811H291.229V53.3405H291.211Z" fill="#004A8B"/>
<path d="M328.272 24.9829H314.498V53.3404H308.252V24.9829H294.461V18.6873H328.29V24.9829H328.272Z" fill="#004A8B"/>
<path d="M365.549 39.8239C365.26 38.826 364.827 37.9733 364.321 37.2113C363.798 36.4493 363.202 35.7961 362.534 35.27C361.866 34.7257 361.144 34.2721 360.404 33.9274C359.664 33.5827 358.906 33.3105 358.165 33.1472C357.407 32.9658 356.703 32.8751 356.017 32.8751H341.594C340.403 32.8751 339.482 32.5304 338.814 31.8228C338.146 31.1152 337.821 30.1718 337.821 28.9562C337.821 27.7588 338.146 26.7972 338.814 26.0715C339.482 25.3457 340.403 24.9829 341.594 24.9829H362.877V21.7171C360.458 21.699 358.039 21.7171 355.62 21.7353C354.501 21.7534 354.086 21.2636 354.122 20.1387C354.14 19.8121 354.14 19.3223 354.14 18.6873H341.612C340.601 18.6873 339.518 18.8687 338.345 19.2315C337.171 19.5944 336.088 20.175 335.077 20.9914C334.084 21.8079 333.254 22.8601 332.586 24.1483C331.918 25.4546 331.575 27.033 331.575 28.9199C331.575 30.8068 331.918 32.4034 332.586 33.7097C333.254 35.016 334.084 36.0683 335.077 36.8666C336.088 37.6648 337.171 38.2636 338.345 38.6264C339.518 38.9893 340.601 39.1707 341.612 39.1707H355.981C356.559 39.1707 357.082 39.2614 357.57 39.461C358.039 39.6606 358.436 39.9327 358.761 40.2774C359.086 40.6222 359.339 41.0576 359.519 41.5293C359.7 42.001 359.79 42.5453 359.79 43.1259C359.79 44.3233 359.447 45.2668 358.779 45.9743C358.111 46.6819 357.191 47.0448 355.981 47.0448H331.882V53.3223H355.981C356.667 53.3223 357.371 53.2315 358.129 53.0864C358.888 52.9231 359.646 52.6691 360.368 52.3425C361.108 51.9978 361.83 51.5624 362.516 51.0362C363.202 50.492 363.816 49.8569 364.321 49.0949C364.827 48.3511 365.242 47.4621 365.549 46.4824C365.874 45.4845 366.018 44.3778 366.018 43.1259C366 41.9103 365.856 40.8036 365.549 39.8239Z" fill="#004A8B"/>
<path d="M175.734 81.8814C175.734 83.986 175.373 85.9273 174.633 87.7053C173.911 89.4834 172.9 91.0074 171.618 92.2774C170.337 93.5655 168.82 94.5634 167.051 95.2891C165.282 96.0148 163.369 96.3777 161.311 96.3777H144.432C143.981 96.3777 143.566 96.3051 143.187 96.1418C142.808 95.9786 142.465 95.7608 142.194 95.4705C141.905 95.1803 141.688 94.8537 141.526 94.4727C141.363 94.0917 141.291 93.6744 141.291 93.2208V64.8996C141.291 64.4641 141.363 64.0468 141.526 63.6658C141.688 63.2848 141.905 62.9401 142.194 62.6498C142.483 62.3595 142.808 62.1418 143.187 61.9785C143.566 61.8152 143.981 61.7427 144.432 61.7427H161.311C163.387 61.7427 165.3 62.1055 167.051 62.8313C168.82 63.557 170.337 64.5548 171.618 65.843C172.9 67.1312 173.911 68.6552 174.633 70.4332C175.355 72.2112 175.734 74.1525 175.734 76.2389V81.8814ZM169.488 76.2389C169.488 75.0234 169.29 73.8985 168.892 72.8825C168.495 71.8665 167.936 70.9956 167.214 70.288C166.492 69.5805 165.625 69.018 164.632 68.6189C163.639 68.2197 162.52 68.0202 161.311 68.0202H147.537V90.1002H161.311C162.52 90.1002 163.639 89.9006 164.632 89.5015C165.625 89.1024 166.492 88.5581 167.214 87.8323C167.936 87.1066 168.495 86.2539 168.892 85.2379C169.29 84.2219 169.488 83.1151 169.488 81.8633V76.2389Z" fill="#EE771B"/>
<path d="M188.948 96.3757H182.702V61.7225H188.948V96.3757Z" fill="#EE771B"/>
<path d="M231.063 93.2189C231.063 93.6724 230.991 94.0897 230.828 94.4707C230.666 94.8517 230.449 95.1964 230.16 95.4686C229.871 95.7589 229.546 95.9766 229.167 96.1399C228.788 96.3032 228.373 96.3757 227.922 96.3757H205.375C204.797 96.3757 204.184 96.3032 203.516 96.1762C202.848 96.031 202.198 95.8314 201.548 95.5412C200.898 95.2509 200.284 94.8699 199.689 94.4163C199.093 93.9627 198.57 93.4003 198.118 92.7471C197.667 92.094 197.288 91.332 197.017 90.4793C196.746 89.6084 196.602 88.6468 196.602 87.5764V70.5582C196.602 69.9777 196.674 69.3608 196.8 68.6895C196.945 68.0182 197.143 67.3651 197.432 66.7119C197.721 66.0588 198.1 65.4419 198.57 64.8432C199.039 64.2445 199.599 63.7183 200.248 63.2647C200.898 62.8112 201.638 62.4302 202.505 62.158C203.353 61.8859 204.31 61.7407 205.393 61.7407H230.81V68.0182H205.393C204.581 68.0182 203.949 68.2359 203.516 68.6714C203.083 69.1068 202.866 69.7418 202.866 70.6127V87.5764C202.866 88.3747 203.083 89.0097 203.534 89.4451C203.967 89.8805 204.599 90.1164 205.393 90.1164H224.835V82.2423H208.191V75.9104H227.922C228.373 75.9104 228.788 76.0011 229.167 76.1644C229.546 76.3277 229.889 76.5636 230.16 76.8539C230.449 77.1441 230.666 77.4707 230.828 77.8517C230.991 78.2327 231.063 78.6319 231.063 79.0673V93.2189Z" fill="#EE771B"/>
<path d="M244.674 96.3757H238.428V61.7225H244.674V96.3757Z" fill="#EE771B"/>
<path d="M283.918 68.0182H270.145V96.3939H263.899V68.0182H250.107V61.7407H283.936V68.0182H283.918Z" fill="#EE771B"/>
<path d="M321.935 96.3757H315.69V87.8666H293.702V96.3757H287.457V79.0491C287.457 76.5272 287.89 74.1868 288.756 72.0641C289.623 69.9413 290.832 68.1089 292.367 66.5849C293.901 65.0608 295.724 63.8634 297.818 63.0107C299.912 62.158 302.205 61.7225 304.696 61.7225H318.776C319.21 61.7225 319.625 61.7951 320.004 61.9584C320.383 62.1217 320.726 62.3394 321.015 62.6297C321.304 62.92 321.52 63.2647 321.683 63.6457C321.845 64.0267 321.917 64.444 321.917 64.8794V96.3757H321.935ZM293.702 81.5891H315.671V68H304.678C304.479 68 304.082 68.0363 303.468 68.0907C302.855 68.1452 302.133 68.2903 301.32 68.508C300.508 68.7257 299.66 69.0886 298.757 69.5422C297.854 70.0139 297.042 70.6489 296.284 71.4835C295.526 72.2999 294.912 73.3341 294.425 74.5678C293.937 75.8015 293.684 77.2892 293.684 79.0491V81.5891H293.702Z" fill="#EE771B"/>
<path d="M361.649 96.3757H333.128C332.676 96.3757 332.261 96.3032 331.882 96.1399C331.503 95.9766 331.16 95.7589 330.889 95.4686C330.6 95.1783 330.384 94.8517 330.221 94.4707C330.059 94.0897 329.987 93.6724 329.987 93.2189V61.7407H336.232V90.1164H361.649V96.3757Z" fill="#EE771B"/>
</g>
<defs>
<clipPath id="clip0">
<rect width="366" height="119" fill="white"/>
</clipPath>
</defs>
</svg>
